<?xml version="1.0" encoding="UTF-8"?>
<svg version="1.1" xmlns="http://www.w3.org/2000/svg" width="1024" height="1024">
<path d="M0 0 C23.76 0 47.52 0 72 0 C72 0.33 72 0.66 72 1 C72.78310547 1.06993164 73.56621094 1.13986328 74.37304688 1.21191406 C89.16983718 2.55511365 103.83100016 4.05010894 118.45898438 6.72949219 C122.20939382 7.410299 125.64645713 8.0011944 129.46875 7.98828125 C132 8 132 8 135 10 C137.35978078 10.70103789 139.69282109 11.33038037 142.08203125 11.91015625 C142.7738298 12.08252304 143.46562836 12.25488983 144.1783905 12.43247986 C145.64111016 12.79572683 147.10453606 13.15614006 148.56860352 13.51391602 C150.79539113 14.05831725 153.01988542 14.61136863 155.24414062 15.16601562 C156.6691439 15.51874238 158.09427034 15.87097198 159.51953125 16.22265625 C160.17911331 16.38621109 160.83869537 16.54976593 161.51826477 16.71827698 C165.32694997 17.64630542 169.12548088 18.40498323 173 19 C173 19.66 173 20.32 173 21 C174.258125 21.24878906 175.51625 21.49757813 176.8125 21.75390625 C182.39981355 23.00146359 187.6563371 24.90416094 193 26.9375 C194.03092773 27.32719971 195.06185547 27.71689941 196.12402344 28.1184082 C211.27755439 33.93076844 226.17378152 40.42052192 240.59277344 47.87426758 C242.85904003 49.14120486 242.85904003 49.14120486 245 49 C246.00236772 49.99762666 247.00191246 50.99809119 248 52 C249.48047517 52.9238644 250.9935817 53.79649641 252.52734375 54.62890625 C253.83928711 55.34530273 253.83928711 55.34530273 255.17773438 56.07617188 C256.08845703 56.56666016 256.99917969 57.05714844 257.9375 57.5625 C259.2977832 58.3040332 259.2977832 58.3040332 260.68554688 59.06054688 C265.37480126 61.62393624 265.37480126 61.62393624 270.14282227 64.03491211 C272 65 272 65 274.375 66.9375 C277.12079493 69.0949103 279.8432372 70.52684403 283 72 C285.64812161 73.3240608 287.68983391 75.14044323 290 77 C292.4869664 78.8924439 294.9946234 80.75702732 297.5 82.625 C312.6762474 93.98853831 327.37498376 105.60223984 341.28125 118.50390625 C343.5858188 120.61973881 345.92705267 122.66445717 348.3125 124.6875 C351.58579484 127.52300849 354.3654778 130.60850666 357.16015625 133.91015625 C359.13761436 136.15631356 361.22961266 138.22660347 363.375 140.3125 C367.4582424 144.34737913 371.08481158 148.62400432 374.671875 153.1015625 C377.13466138 156.1676489 379.65543435 159.17877109 382.1875 162.1875 C385.53308632 166.18246254 388.73865191 170.22125673 391.74609375 174.4765625 C393.10826699 176.28156174 393.10826699 176.28156174 396 178 C396 178.66 396 179.32 396 180 C396.83002782 181.39312877 397.7219003 182.74963705 398.640625 184.0859375 C399.49551514 185.34253174 399.49551514 185.34253174 400.36767578 186.62451172 C400.98884277 187.53217285 401.61000977 188.43983398 402.25 189.375 C446.39453404 254.85848455 473.91477624 333.23594885 474.203125 412.69140625 C474.20882507 413.95677719 474.21452515 415.22214813 474.22039795 416.52586365 C474.22978052 419.19232744 474.2367104 421.85868072 474.24023438 424.52514648 C474.2467111 428.50065513 474.28090425 432.47578426 474.3125 436.45117188 C474.51318153 484.95196668 464.92227182 531.72592791 448.90454102 577.29980469 C447.99764294 579.87060897 447.99764294 579.87060897 447.51660156 582.04785156 C446.85763817 584.53796086 445.82325956 586.73052605 444.73046875 589.0625 C442.98744469 592.83228168 441.29266204 596.61187549 439.67578125 600.4375 C424.26159763 636.81562168 403.45327354 670.87659274 378.2265625 701.3046875 C376.78793136 703.04618836 375.36481386 704.80067525 373.9609375 706.5703125 C368.65775603 713.22411697 362.96291003 719.40019193 357.05224609 725.51831055 C356.42785645 726.170979 355.8034668 726.82364746 355.16015625 727.49609375 C354.59949463 728.07544678 354.03883301 728.6547998 353.46118164 729.25170898 C351.93797572 731.07421151 351.03110047 732.87085162 350 735 C348.16015625 736.81640625 348.16015625 736.81640625 346.0625 738.5625 C343.11693957 741.03190133 343.11693957 741.03190133 340.37109375 743.71484375 C339 745 339 745 337 745 C336.77183594 745.56332031 336.54367187 746.12664063 336.30859375 746.70703125 C334.63771072 749.63481733 332.57908203 751.4453229 330.0625 753.6875 C329.57450928 754.12320313 329.08651855 754.55890625 328.58374023 755.0078125 C324.41627283 758.69974318 320.12903234 762.23837805 315.79296875 765.73046875 C313.9218162 767.25094376 312.07014986 768.7956992 310.23828125 770.36328125 C285.05637852 791.90359914 255.66582594 809.64367716 225.90869141 824.07226562 C224.12552462 824.93898778 222.3495723 825.8205091 220.57421875 826.703125 C182.57195887 845.12324644 141.37320595 855.2280482 99.9375 862.30859375 C97.91162625 862.66432753 95.88362369 863.02975753 93.89086914 863.53930664 C91.66771658 864.08095788 89.72325189 864.06025046 87.4375 864 C83.91646734 863.95265259 80.51488413 864.10573474 77.015625 864.48730469 C70.44562241 865.11158987 63.90848183 865.18004759 57.3125 865.203125 C56.01594482 865.20882507 54.71938965 865.21452515 53.38354492 865.22039795 C50.64371357 865.23083508 47.90391085 865.23672206 45.1640625 865.24023438 C42.41652827 865.24457462 39.66931596 865.25830514 36.921875 865.28125 C1.08968308 865.57426366 -33.23032383 860.44696612 -68 852 C-68.33 852.66 -68.66 853.32 -69 854 C-69.38091797 853.54206055 -69.76183594 853.08412109 -70.15429688 852.61230469 C-72.50484429 850.55899581 -74.52639591 850.03369549 -77.53125 849.203125 C-78.64314697 848.88762695 -79.75504395 848.57212891 -80.90063477 848.24707031 C-82.08842529 847.91803711 -83.27621582 847.58900391 -84.5 847.25 C-98.65644236 843.19912297 -112.50867614 838.57458746 -125.9921875 832.62890625 C-128.40021364 831.87464125 -130.49172059 831.89075438 -133 832 C-133 831.34 -133 830.68 -133 830 C-134.04414063 829.56171875 -135.08828125 829.1234375 -136.1640625 828.671875 C-147.152049 823.96888515 -157.6026211 818.55266708 -168.0390625 812.734375 C-175.79155857 808.36751728 -175.79155857 808.36751728 -184 805 C-183.67 804.67 -183.34 804.34 -183 804 C-185.55939439 802.36992743 -188.12227323 800.74584824 -190.6875 799.125 C-191.40873047 798.66480469 -192.12996094 798.20460938 -192.87304688 797.73046875 C-197.12881737 795.04561318 -197.12881737 795.04561318 -201.70703125 792.9921875 C-204.85283769 791.63096972 -206.59327831 789.44090807 -209 787 C-211.93390013 784.70041724 -214.97046778 782.5463248 -218 780.375 C-229.12663849 772.28482965 -239.40374535 763.56264795 -249.53125 754.25 C-251.59271332 752.37119799 -253.6851813 750.55281246 -255.8125 748.75 C-264.8396771 740.89784802 -273.33188639 732.17771987 -281 723 C-281.79277344 722.07316406 -282.58554687 721.14632812 -283.40234375 720.19140625 C-285.77613497 717.41495325 -288.12990387 714.62233634 -290.47460938 711.82128906 C-291.49967836 710.59737506 -292.52706144 709.37539582 -293.55664062 708.15527344 C-301.86118092 698.28915189 -309.32807941 688.03096209 -316.46875 677.29541016 C-317.95557228 675.06659908 -319.45915546 672.85015166 -320.96875 670.63671875 C-321.87535794 669.29972181 -322.78162738 667.96249526 -323.6875 666.625 C-324.09766357 666.02486084 -324.50782715 665.42472168 -324.93041992 664.80639648 C-327.053007 661.64267705 -328.73960224 658.59921071 -330 655 C-331.32 655 -332.64 655 -334 655 C-334.68707555 652.50935112 -335 650.62113708 -335 648 C-335.77418089 646.33632704 -336.62621217 644.70832395 -337.51953125 643.10546875 C-338.31133789 641.67170898 -338.31133789 641.67170898 -339.11914062 640.20898438 C-339.95735352 638.71334961 -339.95735352 638.71334961 -340.8125 637.1875 C-350 620.64134276 -350 620.64134276 -350 618 C-350.66 617.67 -351.32 617.34 -352 617 C-352.859375 615.20703125 -352.859375 615.20703125 -353.75 612.8125 C-355.4818917 608.33682481 -357.23026049 603.87299907 -359.0625 599.4375 C-359.79146484 597.64119141 -359.79146484 597.64119141 -360.53515625 595.80859375 C-361.74287862 592.69964347 -361.74287862 592.69964347 -365 592 C-364.67 590.02 -364.34 588.04 -364 586 C-364.66 585.67 -365.32 585.34 -366 585 C-366 583.35 -366 581.7 -366 580 C-366.66 579.67 -367.32 579.34 -368 579 C-368.74609375 576.8125 -368.74609375 576.8125 -369.4375 574 C-370.57697575 569.53511542 -371.89478335 565.21147619 -373.44921875 560.875 C-374 559 -374 559 -374 556 C-374.66 555.67 -375.32 555.34 -376 555 C-376.95849219 551.37570139 -377.74124276 547.75133383 -378.5 544.08203125 C-378.94342853 542.04156713 -379.4661317 540.01868951 -380 538 C-380.66 537.67 -381.32 537.34 -382 537 C-382.625 534.9375 -382.625 534.9375 -383 533 C-382.34 533 -381.68 533 -381 533 C-381.21934204 532.09290283 -381.21934204 532.09290283 -381.44311523 531.16748047 C-382.11008242 528.40383938 -382.77381703 525.63943154 -383.4375 522.875 C-383.66759766 521.92367187 -383.89769531 520.97234375 -384.13476562 519.9921875 C-385.24835719 515.34415313 -386.30666853 510.7337804 -387 506 C-387.66 506 -388.32 506 -389 506 C-389.60965199 499.97968656 -390.13451772 494.05329744 -390 488 C-390.66 488 -391.32 488 -392 488 C-391.98839844 486.94683594 -391.97679687 485.89367187 -391.96484375 484.80859375 C-391.95544356 483.35156431 -391.94634582 481.89453291 -391.9375 480.4375 C-391.92912109 479.75236328 -391.92074219 479.06722656 -391.91210938 478.36132812 C-391.89160781 473.78947875 -392.12449125 469.29505695 -392.49609375 464.73828125 C-393.29420625 453.40508381 -393.14881019 442.04802919 -393.13037109 430.69238281 C-393.12499374 426.74540398 -393.13035108 422.79853796 -393.13671875 418.8515625 C-393.13605819 416.31249975 -393.13477749 413.77343707 -393.1328125 411.234375 C-393.13483673 410.06952576 -393.13686096 408.90467651 -393.13894653 407.70452881 C-393.12140051 401.51498721 -392.86969419 395.43421311 -392.22018433 389.2774353 C-391.94840033 386.46628848 -391.93418034 383.69701783 -392 380.875 C-392.03681774 379.25041714 -392.04794959 377.62429241 -392 376 C-391.67 375.67 -391.34 375.34 -391 375 C-390.56667218 372.68305388 -390.18638595 370.37673846 -389.8359375 368.046875 C-389.60345752 366.56042849 -389.37018679 365.07410549 -389.13623047 363.58789062 C-389.01294373 362.80003174 -388.88965698 362.01217285 -388.76263428 361.20043945 C-380.65744687 309.96330138 -364.57832774 258.09328073 -337.40698242 213.56738281 C-336.17086087 211.31177736 -335.45700374 209.51074974 -335 207 C-334.67 207.33 -334.34 207.66 -334 208 C-333.40832031 207.01 -332.81664062 206.02 -332.20703125 205 C-325.01406472 192.97977399 -325.01406472 192.97977399 -322 188.1875 C-320.08240231 185.24527259 -320.08240231 185.24527259 -319 183 C-318.41089844 182.42765625 -317.82179688 181.8553125 -317.21484375 181.265625 C-314.64894281 178.64089388 -312.63311545 175.76300006 -310.5625 172.75 C-302.61786402 161.42738906 -293.83718348 150.74736317 -284.4140625 140.625 C-282.4770444 138.51872789 -280.59911283 136.38470856 -278.73046875 134.21875 C-274.88352293 129.80802764 -270.82293916 125.63927182 -266.6875 121.5 C-265.97271484 120.77296875 -265.25792969 120.0459375 -264.52148438 119.296875 C-263.83763672 118.61109375 -263.15378906 117.9253125 -262.44921875 117.21875 C-261.83393311 116.59935547 -261.21864746 115.97996094 -260.5847168 115.34179688 C-259 114 -259 114 -257 114 C-257 113.34 -257 112.68 -257 112 C-255.49609375 110.484375 -255.49609375 110.484375 -253.4375 108.75 C-252.34888672 107.82767578 -252.34888672 107.82767578 -251.23828125 106.88671875 C-250.49964844 106.26410156 -249.76101562 105.64148438 -249 105 C-248.33355469 104.40832031 -247.66710937 103.81664062 -246.98046875 103.20703125 C-246.36816406 102.66433594 -245.75585938 102.12164062 -245.125 101.5625 C-244.29355469 100.82193359 -244.29355469 100.82193359 -243.4453125 100.06640625 C-242 99 -242 99 -240 99 C-239.67 98.01 -239.34 97.02 -239 96 C-237.28515625 94.67578125 -237.28515625 94.67578125 -235.0625 93.3125 C-231.68063952 91.1701825 -228.56466352 88.8943498 -225.484375 86.33984375 C-219.6250158 81.61280639 -213.45939117 77.40550093 -207.1875 73.25 C-206.60206421 72.86048157 -206.01662842 72.47096313 -205.41345215 72.06964111 C-195.26446963 65.32990508 -184.91515034 59.05236228 -174.21777344 53.21386719 C-172.24101738 52.13191748 -170.27901788 51.0282183 -168.3203125 49.9140625 C-151.90966309 40.79703505 -134.38172576 33.22009382 -116.6484375 27.0859375 C-113.86853517 26.28531992 -113.86853517 26.28531992 -113 24 C-110.67097704 23.63777406 -108.33640689 23.31106009 -106 23 C-103.17242168 22.29746689 -100.40266344 21.43979149 -97.625 20.5625 C-96.90183594 20.34529297 -96.17867188 20.12808594 -95.43359375 19.90429688 C-93.60168552 19.33204036 -91.79752795 18.67250172 -90 18 C-89.67 17.34 -89.34 16.68 -89 16 C-87.10375977 15.67163086 -87.10375977 15.67163086 -84.62890625 15.52734375 C-78.91214599 15.06206157 -73.50412075 13.90996007 -67.9375 12.5625 C-66.98939453 12.34529297 -66.04128906 12.12808594 -65.06445312 11.90429688 C-63.71577148 11.58235352 -63.71577148 11.58235352 -62.33984375 11.25390625 C-61.52894287 11.06127197 -60.71804199 10.8686377 -59.88256836 10.67016602 C-57.79784911 10.17290379 -57.79784911 10.17290379 -57 8 C-55.83339844 8.0211084 -54.66679687 8.0422168 -53.46484375 8.06396484 C-49.41781583 8.06163156 -45.56457085 7.61216714 -41.5625 6.9765625 C-40.87929688 6.87032562 -40.19609375 6.76408875 -39.4921875 6.65463257 C-37.3271835 6.31712092 -35.16356623 5.97159778 -33 5.625 C-30.16718954 5.17631498 -27.33381196 4.73137663 -24.5 4.2890625 C-23.45803467 4.12594574 -23.45803467 4.12594574 -22.39501953 3.95953369 C-14.95032839 2.81013782 -7.47953549 1.88964192 0 1 C0 0.67 0 0.34 0 0 Z M-389 495 C-389 496.65 -389 498.3 -389 500 C-388.67 500 -388.34 500 -388 500 C-388 498.35 -388 496.7 -388 495 C-388.33 495 -388.66 495 -389 495 Z M-364 589 C-363 591 -363 591 -363 591 Z " fill="#689A76" transform="translate(472,80)"/>
<path d="M0 0 C47.19 0 94.38 0 143 0 C145.64 10.56 148.28 21.12 151 32 C152.21042969 36.83011719 153.42085937 41.66023438 154.66796875 46.63671875 C156.43554688 53.69335938 156.43554688 53.69335938 157.31030273 57.1862793 C157.90006087 59.54022349 158.49023702 61.89406298 159.08081055 64.24780273 C162.17365535 76.57609671 165.24296532 88.90762165 168.16758728 101.27700806 C170.63729209 111.71958268 173.19491227 122.14054802 175.75 132.5625 C176.13818405 134.14750305 176.13818405 134.14750305 176.53421021 135.76452637 C180.14854412 150.52001998 183.80241354 165.26504499 187.50231934 179.9992981 C189.74638106 188.93793019 191.94745007 197.88401242 194.05297852 206.85644531 C196.26225981 216.21449575 198.62527229 225.53433064 200.96774292 234.85971069 C203.5553788 245.16454378 206.09347291 255.47850195 208.5625 265.8125 C211.15479975 276.65371388 213.8969746 287.4498947 216.70462036 298.23675537 C219.2783255 308.12720934 221.74851343 318.03124695 224 328 C226.11804409 322.5870094 227.83691192 317.2415458 229.2421875 311.60546875 C229.44650894 310.80189438 229.65083038 309.99832001 229.86134338 309.1703949 C230.30394879 307.42711892 230.74445556 305.68330903 231.18307495 303.93902588 C231.8927339 301.11697895 232.60796439 298.29639192 233.32446289 295.47607422 C234.6203418 290.37160934 235.91138137 285.26593313 237.20135498 280.15997314 C239.60579926 270.64638554 242.01957739 261.13517001 244.4375 251.625 C244.84307129 250.02872772 244.84307129 250.02872772 245.25683594 248.40020752 C249.63381528 231.1873199 254.14253007 214.01247899 258.77905273 196.86767578 C261.37734793 187.23753558 263.87022136 177.58701648 266.2734375 167.90625 C268.9343156 157.18932959 271.66705902 146.49353755 274.453125 135.80859375 C274.74198861 134.70066436 274.74198861 134.70066436 275.03668785 133.57035255 C276.23347103 128.98188882 277.43215895 124.39392395 278.63118362 119.80604553 C280.53173566 112.53160322 282.42818572 105.25608999 284.32421875 97.98046875 C284.53029188 97.18984165 284.73636501 96.39921455 284.94868279 95.58462906 C287.43117673 86.05793006 289.90096064 76.52826281 292.33203125 66.98828125 C292.57386139 66.03936508 292.81569153 65.09044891 293.06484985 64.11277771 C294.10633178 60.02096982 295.14389014 55.92822269 296.17480469 51.83374023 C300.56982541 34.49428181 305.33070609 17.27638748 310 0 C355.87 0 401.74 0 449 0 C449 158.07 449 316.14 449 479 C419.3 479 389.6 479 359 479 C359 369.77 359 260.54 359 148 C354.05 167.8 354.05 167.8 349 188 C346.10096391 199.21564587 343.19976563 210.43019779 340.27005005 221.63778687 C338.07890597 230.02386908 335.89577442 238.41203775 333.71484375 246.80078125 C333.39715184 248.02265105 333.39715184 248.02265105 333.07304192 249.26920509 C329.83582701 261.72549838 326.6522014 274.19369606 323.5625 286.6875 C317.24504529 312.21303509 310.54099339 337.63862097 303.88720703 363.078125 C301.80407614 371.04264133 299.72194589 379.00741872 297.64113617 386.97254181 C297.25622678 388.44593434 296.87128328 389.91931797 296.48630524 391.39269257 C288.8646929 420.56387792 281.40526765 449.7728266 274 479 C241.66 479 209.32 479 176 479 C172.885625 466.66625 169.77125 454.3325 166.5625 441.625 C164.61070598 433.90851394 162.65866014 426.19210006 160.703125 418.4765625 C160.46320076 417.52993366 160.22327652 416.58330482 159.97608185 415.60799026 C147.49987005 366.39168093 134.67913269 317.26893111 121.76660156 268.16552734 C115.04561174 242.6065348 108.33716701 217.04439121 101.67385101 191.47029495 C101.06953636 189.15199323 100.46448393 186.83388533 99.85919189 184.51583862 C98.92131009 180.92379596 97.98526973 177.33127861 97.05072212 173.73836708 C96.55927001 171.85044589 96.06616887 169.96295419 95.57298279 168.07548523 C95.27569778 166.93054092 94.97841278 165.78559662 94.67211914 164.60595703 C94.41966934 163.6365921 94.16721954 162.66722717 93.90711975 161.66848755 C92.53724759 156.12858067 91.2832194 150.56061741 90 145 C89.67 255.22 89.34 365.44 89 479 C59.63 479 30.26 479 0 479 C0 320.93 0 162.86 0 0 Z " fill="#000000" transform="translate(288,264)"/>
<path d="M0 0 C2.40201037 3.60301555 3.17207679 7.15846069 4.125 11.3125 C4.30675781 12.05951172 4.48851562 12.80652344 4.67578125 13.57617188 C5.66292457 17.80307504 6.20855091 21.62738257 6 26 C3.8614515 23.8614515 3.57344937 22.86724686 3 20 C2.99826375 20.67249863 2.9965275 21.34499726 2.99473864 22.03787464 C2.89181848 61.8528985 2.78372946 101.6679053 2.66888306 141.48289662 C2.65511268 146.25837303 2.64138571 151.03384956 2.62768555 155.80932617 C2.62495724 156.76007936 2.62222894 157.71083255 2.61941796 158.69039644 C2.57528483 174.10591317 2.53467127 189.52143728 2.49534739 204.93696695 C2.45495079 220.74246656 2.41079752 236.54795242 2.36312145 252.35343176 C2.3337976 262.11442682 2.3074406 271.87542079 2.28482103 281.63643373 C2.26905179 288.32046507 2.24964958 295.00447957 2.22733159 301.68849223 C2.21454443 305.55079851 2.2034154 309.41309173 2.19658089 313.27541351 C2.1891474 317.45271657 2.17409258 321.62995623 2.15821838 325.80723572 C2.15724028 327.04164443 2.15626217 328.27605315 2.15525442 329.54786819 C2.14977998 330.65757903 2.14430554 331.76728988 2.1386652 332.91062832 C2.13600716 333.87625712 2.13334911 334.84188592 2.13061053 335.8367762 C2 338 2 338 1 339 C-1.7998972 339.09519368 -4.57506174 339.12553944 -7.37524414 339.11352539 C-8.69219521 339.11374443 -8.69219521 339.11374443 -10.03575134 339.1139679 C-12.95224435 339.11326844 -15.86867433 339.10547455 -18.78515625 339.09765625 C-20.80154892 339.09579218 -22.81794204 339.09436823 -24.83433533 339.09336853 C-30.15265138 339.08954244 -35.4709403 339.07971139 -40.78924561 339.06866455 C-46.21170688 339.05845238 -51.63417252 339.05387133 -57.05664062 339.04882812 C-67.70443903 339.0380892 -78.35221726 339.02101169 -89 339 C-89 338.34 -89 337.68 -89 337 C-59.63 337 -30.26 337 0 337 C0 225.79 0 114.58 0 0 Z " fill="#7BBD8E" transform="translate(377,406)"/>
<path d="M0 0 C0.97998718 3.27421402 1.11911114 6.21954693 1.10743046 9.63030624 C1.10593811 10.78430758 1.10444576 11.93830892 1.10290819 13.12728 C1.0961044 14.39575062 1.08930061 15.66422124 1.08229065 16.97113037 C1.07859665 18.33164081 1.07534743 19.69215251 1.07250541 21.052665 C1.06339789 24.79477019 1.04796689 28.53682693 1.03152263 32.27890611 C1.01489648 36.31294553 1.00410728 40.34700101 0.99261475 44.38105774 C0.97189829 51.37151215 0.94747092 58.36194574 0.92053413 65.35237885 C0.88159324 75.45941328 0.84823178 85.56646004 0.81623887 95.67351857 C0.76418262 112.07093458 0.70760432 128.46833176 0.64819336 144.86572266 C0.59048548 160.79572822 0.53490041 176.72573885 0.48217773 192.65576172 C0.47892802 193.63743237 0.4756783 194.61910302 0.4723301 195.63052127 C0.45604059 200.55519806 0.43979289 205.47987499 0.42356598 210.40455198 C0.28886032 251.26972555 0.14598947 292.13486488 0 333 C29.7 333 59.4 333 90 333 C90 333.33 90 333.66 90 334 C78.15234827 334.02312202 66.30470186 334.04091437 54.4570322 334.05181217 C48.95629138 334.05704131 43.45556595 334.06413951 37.95483398 334.07543945 C32.6510344 334.08626725 27.34724965 334.0922766 22.04343987 334.09487724 C20.01514388 334.09673169 17.98684874 334.10035267 15.95855904 334.10573006 C13.12803486 334.11293906 10.29757282 334.113991 7.46704102 334.11352539 C6.61971909 334.11712067 5.77239716 334.12071594 4.8993988 334.12442017 C-0.88594784 334.11405216 -0.88594784 334.11405216 -2 333 C-2.10222128 331.33206179 -2.13399184 329.65977628 -2.1386652 327.98871517 C-2.14413964 326.89642131 -2.14961409 325.80412744 -2.15525442 324.67873377 C-2.15672158 322.8563028 -2.15672158 322.8563028 -2.15821838 320.99705505 C-2.16315636 319.71804874 -2.16809434 318.43904243 -2.17318195 317.12127835 C-2.18681648 313.55484834 -2.1941967 309.98842791 -2.20060861 306.42197859 C-2.20858933 302.58213968 -2.22229506 298.74232085 -2.23532104 294.90249634 C-2.25711696 288.24431929 -2.27525 281.58614025 -2.29092598 274.92794609 C-2.31359632 265.30120329 -2.34174302 255.6744827 -2.37124526 246.04775871 C-2.41895603 230.43069333 -2.46221073 214.81361889 -2.50268555 199.1965332 C-2.54202277 184.02204686 -2.58344471 168.84756858 -2.62768555 153.6730957 C-2.63040982 152.73842881 -2.63313409 151.80376192 -2.63594092 150.84077179 C-2.6496201 146.15202802 -2.66334043 141.46328437 -2.67708123 136.77454078 C-2.79110074 97.84971061 -2.89789795 58.92486315 -3 20 C-3.66 20.99 -4.32 21.98 -5 23 C-4.44636539 14.97229811 -2.34312056 7.66145933 0 0 Z " fill="#7BBA8A" transform="translate(647,410)"/>
<path d="M0 0 C0.99632209 3.2626022 1.04784573 6.04414288 0.89002991 9.44271851 C0.84326079 10.6101037 0.79649168 11.7774889 0.74830532 12.9802494 C0.7211651 13.62654407 0.69402488 14.27283873 0.66606224 14.93871808 C-0.06207385 32.93257995 -0.14075673 50.93406539 -0.20532227 68.93994141 C-0.20796319 69.65455031 -0.21060412 70.36915922 -0.21332507 71.10542294 C-0.24696966 80.27545895 -0.27344728 89.44550806 -0.29708016 98.61557475 C-0.31825906 106.7606189 -0.34463882 114.90564405 -0.37124526 123.05067198 C-0.418535 137.56795152 -0.46189967 152.08523989 -0.50268555 166.60253906 C-0.54223986 180.67839235 -0.58371141 194.75423792 -0.62768555 208.83007812 C-0.63177196 210.13842477 -0.63177196 210.13842477 -0.63594092 211.47320266 C-0.64962365 215.85030221 -0.66334328 220.22740164 -0.67708123 224.60450101 C-0.79043694 260.73631779 -0.89737634 296.86815122 -1 333 C-1.33 333 -1.66 333 -2 333 C-2.33 229.71 -2.66 126.42 -3 20 C-3.66 20.99 -4.32 21.98 -5 23 C-4.44636539 14.97229811 -2.34312056 7.66145933 0 0 Z " fill="#86CB99" transform="translate(647,410)"/>
<path d="M0 0 C0.66 0 1.32 0 2 0 C2 0.66 2 1.32 2 2 C0.49609375 3.48046875 0.49609375 3.48046875 -1.5625 5.1875 C-5.10996174 8.18677493 -8.36522872 11.33995132 -11.5546875 14.71484375 C-13 16 -13 16 -15 16 C-15.495 17.485 -15.495 17.485 -16 19 C-17.3828125 20.32421875 -17.3828125 20.32421875 -19.125 21.6875 C-22.40043521 24.40162071 -25.10774513 27.30133851 -27.85546875 30.5390625 C-30.08720904 33.10007594 -32.39324113 35.5744586 -34.72045898 38.04833984 C-40.45602346 44.15007358 -45.92989009 50.32578751 -51 57 C-51.64654541 57.84570557 -51.64654541 57.84570557 -52.30615234 58.70849609 C-63.67164398 73.59623813 -74.58451629 88.60217246 -83.82080078 104.91796875 C-84.98407832 106.97188817 -86.1606978 109.01765821 -87.33984375 111.0625 C-100.90341541 134.71305997 -111.44499755 159.49190527 -121 185 C-122.07003258 181.77862451 -121.95123987 180.0436586 -120.734375 176.89453125 C-120.42733643 176.08918945 -120.12029785 175.28384766 -119.80395508 174.45410156 C-119.28224731 173.14650879 -119.28224731 173.14650879 -118.75 171.8125 C-118.38865967 170.89049805 -118.02731934 169.96849609 -117.6550293 169.01855469 C-109.93388823 149.55874182 -101.12306595 130.80885348 -91.24584961 112.35229492 C-89.60266775 109.24979497 -88.11225066 106.33675198 -87 103 C-86.67 103.33 -86.34 103.66 -86 104 C-85.11248047 102.515 -85.11248047 102.515 -84.20703125 101 C-77.01406472 88.97977399 -77.01406472 88.97977399 -74 84.1875 C-72.08240231 81.24527259 -72.08240231 81.24527259 -71 79 C-70.41089844 78.42765625 -69.82179687 77.8553125 -69.21484375 77.265625 C-66.64894281 74.64089388 -64.63311545 71.76300006 -62.5625 68.75 C-54.61786402 57.42738906 -45.83718348 46.74736317 -36.4140625 36.625 C-34.4770444 34.51872789 -32.59911283 32.38470856 -30.73046875 30.21875 C-26.88352293 25.80802764 -22.82293916 21.63927182 -18.6875 17.5 C-17.61532227 16.40945312 -17.61532227 16.40945312 -16.52148438 15.296875 C-15.83763672 14.61109375 -15.15378906 13.9253125 -14.44921875 13.21875 C-13.83393311 12.59935547 -13.21864746 11.97996094 -12.5847168 11.34179688 C-11 10 -11 10 -9 10 C-9 9.34 -9 8.68 -9 8 C-7.28515625 6.30859375 -7.28515625 6.30859375 -5.0625 4.4375 C-3.96615234 3.50744141 -3.96615234 3.50744141 -2.84765625 2.55859375 C-2.23792969 2.04425781 -1.62820312 1.52992188 -1 1 C-0.67 0.67 -0.34 0.34 0 0 Z " fill="#59825F" transform="translate(224,184)"/>
<path d="M0 0 C0.33 0 0.66 0 1 0 C1 103.95 1 207.9 1 315 C0.67 315 0.34 315 0 315 C-0.33 215.34 -0.66 115.68 -1 13 C-1.66 13.66 -2.32 14.32 -3 15 C-3.05395478 13.37536158 -3.09277195 11.75021459 -3.125 10.125 C-3.14820313 9.22007812 -3.17140625 8.31515625 -3.1953125 7.3828125 C-3 5 -3 5 -1 3 C-0.67 2.01 -0.34 1.02 0 0 Z " fill="#60926E" transform="translate(644,427)"/>
<path d="M0 0 C0.33 0 0.66 0 1 0 C1.15375626 17.71487977 1.30179335 35.42979756 1.4429636 53.14478207 C1.50864111 61.36957736 1.57621215 69.59434906 1.64819336 77.8190918 C1.71090467 84.98517683 1.77011165 92.15128064 1.82505554 99.3174296 C1.85428969 103.11418908 1.88531584 106.91091536 1.92053413 110.70762444 C1.95358989 114.27715728 1.98197971 117.84669604 2.00670624 121.41629601 C2.02140379 123.35917342 2.0411246 125.30201077 2.06095886 127.24484253 C2.0715181 128.96339195 2.0715181 128.96339195 2.08229065 130.71665955 C2.09058679 131.71864852 2.09888292 132.72063749 2.10743046 133.75298977 C2 136 2 136 1 137 C-1.7998972 137.09519368 -4.57506174 137.12553944 -7.37524414 137.11352539 C-8.69219521 137.11374443 -8.69219521 137.11374443 -10.03575134 137.1139679 C-12.95224435 137.11326844 -15.86867433 137.10547455 -18.78515625 137.09765625 C-20.80154892 137.09579218 -22.81794204 137.09436823 -24.83433533 137.09336853 C-30.15265138 137.08954244 -35.4709403 137.07971139 -40.78924561 137.06866455 C-46.21170688 137.05845238 -51.63417252 137.05387133 -57.05664062 137.04882812 C-67.70443903 137.0380892 -78.35221726 137.02101169 -89 137 C-89 136.34 -89 135.68 -89 135 C-59.63 135 -30.26 135 0 135 C0 90.45 0 45.9 0 0 Z " fill="#82C593" transform="translate(377,608)"/>
<path d="M0 0 C3.56935418 1.5054419 5.77091235 3.59287562 8.4375 6.375 C10.77376463 8.77224381 12.99123304 10.99311168 15.625 13.0625 C18.46896381 15.38257574 20.67837184 18.01688861 23.0546875 20.8046875 C25.0723892 23.08169223 27.19385619 25.19215463 29.375 27.3125 C33.4582424 31.34737913 37.08481158 35.62400432 40.671875 40.1015625 C43.13466138 43.1676489 45.65543435 46.17877109 48.1875 49.1875 C51.53308632 53.18246254 54.73865191 57.22125673 57.74609375 61.4765625 C59.10826699 63.28156174 59.10826699 63.28156174 62 65 C62 65.66 62 66.32 62 67 C62.83002782 68.39312877 63.7219003 69.74963705 64.640625 71.0859375 C65.21055176 71.92366699 65.78047852 72.76139648 66.36767578 73.62451172 C66.98884277 74.53217285 67.61000977 75.43983398 68.25 76.375 C98.69449134 121.53600173 98.69449134 121.53600173 106 145 C105.67 145.99 105.34 146.98 105 148 C104.56768066 147.09459473 104.13536133 146.18918945 103.68994141 145.25634766 C90.362466 117.3831454 76.33520156 90.95568129 58 66 C57.53480957 65.3620752 57.06961914 64.72415039 56.59033203 64.06689453 C49.47568219 54.32793015 42.00671455 45.01893096 34 36 C33.17628906 35.06414062 32.35257813 34.12828125 31.50390625 33.1640625 C25.3877398 26.35135916 18.96058177 19.85970557 12.5 13.375 C11.61441406 12.48474121 10.72882812 11.59448242 9.81640625 10.67724609 C8.97980469 9.84273926 8.14320313 9.00823242 7.28125 8.1484375 C6.15299805 7.02187744 6.15299805 7.02187744 5.00195312 5.87255859 C2.9412746 3.84292724 2.9412746 3.84292724 0 2 C0 1.34 0 0.68 0 0 Z " fill="#557E5D" transform="translate(806,193)"/>
<path d="M0 0 C0.33 0 0.66 0 1 0 C2.01719034 27.3369904 2.11547591 54.64642105 2 82 C-4.85313859 71.72029211 -1.14938378 50.21802051 -1.13037109 38.41772461 C-1.12676852 35.74805443 -1.12584339 33.07858395 -1.13037109 30.40893555 C-1.13654533 26.52130116 -1.13580404 22.6337308 -1.1328125 18.74609375 C-1.13483673 17.55543808 -1.13686096 16.36478241 -1.13894653 15.13804626 C-1.13579437 14.02571121 -1.13264221 12.91337616 -1.12939453 11.76733398 C-1.12859894 10.79553696 -1.12780334 9.82373993 -1.12698364 8.82249451 C-0.99172161 5.81599435 -0.55094371 2.95629373 0 0 Z " fill="#5C8764" transform="translate(80,472)"/>
<path d="M0 0 C4.18298021 3.26476504 7.63742298 6.72769687 11.08203125 10.7578125 C18.48043425 19.40686203 26.14004394 27.61381944 34.76171875 35.046875 C37.39789261 37.34720123 39.97977031 39.7023585 42.5625 42.0625 C46.64613518 45.78782178 50.77696174 49.43387881 55 53 C50.74677868 53 48.78504664 50.56607748 45.75 47.875 C45.13664795 47.3394751 44.5232959 46.8039502 43.89135742 46.25219727 C30.26752728 34.27545038 16.70167388 21.89003886 5 8 C4.49339844 7.42121094 3.98679688 6.84242188 3.46484375 6.24609375 C0 2.24077298 0 2.24077298 0 0 Z " fill="#57805D" transform="translate(186,795)"/>
<path d="M0 0 C0.66 0.33 1.32 0.66 2 1 C1.37657715 1.40202637 0.7531543 1.80405273 0.11083984 2.21826172 C-11.77906098 9.89729293 -23.61225316 17.58991655 -35 26 C-36.546875 27.13501953 -36.546875 27.13501953 -38.125 28.29296875 C-44.92265836 33.33051914 -51.49880363 38.58660224 -58 44 C-58.66 43.67 -59.32 43.34 -60 43 C-58.71034824 41.62437146 -57.37310707 40.29233607 -56 39 C-55.34 39 -54.68 39 -54 39 C-53.67 38.01 -53.34 37.02 -53 36 C-51.28515625 34.67578125 -51.28515625 34.67578125 -49.0625 33.3125 C-45.69673066 31.18067428 -42.60032076 28.91817437 -39.5390625 26.37109375 C-33.95604668 21.86358613 -28.07731544 17.87199291 -22.09448242 13.92578125 C-20.30090177 12.74234729 -18.51246261 11.55143974 -16.72460938 10.359375 C-4.55411762 2.26750472 -4.55411762 2.26750472 0 0 Z " fill="#57815F" transform="translate(286,140)"/>
<path d="M0 0 C0.33 0 0.66 0 1 0 C0.39756702 5.64121575 -0.61607528 10.95785389 -2.06640625 16.4375 C-2.36393044 17.58581299 -2.36393044 17.58581299 -2.66746521 18.75732422 C-3.29444729 21.1728009 -3.92834449 23.58639787 -4.5625 26 C-4.99199732 27.64961966 -5.42103808 29.29935826 -5.84960938 30.94921875 C-6.8944706 34.96753911 -7.94553226 38.98419034 -9 43 C-12.21764451 38.17353323 -13.36261136 32.80178176 -13 27 C-11 30 -11 30 -11 33 C-10.01 33 -9.02 33 -8 33 C-7.75765625 31.87464844 -7.5153125 30.74929688 -7.265625 29.58984375 C-5.10240103 19.64641285 -2.71926757 9.80672027 0 0 Z " fill="#8CD6A0" transform="translate(522,552)"/>
<path d="M0 0 C0.33 0 0.66 0 1 0 C1.02804921 1.58322194 1.04684498 3.166607 1.0625 4.75 C1.07410156 5.63171875 1.08570312 6.5134375 1.09765625 7.421875 C1.01430463 10.4758785 0.80238918 13.45898805 0.53125 16.5 C-0.07211551 23.41059633 -0.33294913 30.31831624 -0.5625 37.25 C-0.60568359 38.48363281 -0.64886719 39.71726562 -0.69335938 40.98828125 C-0.79814405 43.99210867 -0.9003154 46.99599975 -1 50 C-1.33 50 -1.66 50 -2 50 C-2.1923391 44.78593793 -2.3710492 39.57165475 -2.53710938 34.35668945 C-2.59553047 32.58247335 -2.65768299 30.80837604 -2.72363281 29.03442383 C-2.81775029 26.48540882 -2.89846679 23.93626866 -2.9765625 21.38671875 C-3.00875885 20.59287277 -3.0409552 19.79902679 -3.0741272 18.98112488 C-3.18035422 15.08135205 -3.21970518 13.32955777 -1 10 C-0.54398739 7.49103314 -0.54398739 7.49103314 -0.375 4.8125 C-0.30023438 3.91144531 -0.22546875 3.01039063 -0.1484375 2.08203125 C-0.09945312 1.39496094 -0.05046875 0.70789063 0 0 Z " fill="#70A781" transform="translate(83,454)"/>
<path d="M0 0 C4.8929813 -0.02477941 9.7859258 -0.04289763 14.67895508 -0.05493164 C16.34237301 -0.05995023 18.00578656 -0.06676652 19.66918945 -0.07543945 C22.06462693 -0.08761357 24.46000591 -0.09325314 26.85546875 -0.09765625 C27.96513252 -0.10539818 27.96513252 -0.10539818 29.09721375 -0.11329651 C32.86083154 -0.11370241 36.34140381 0.09241691 40 1 C40 1.33 40 1.66 40 2 C26.65965829 2.62825257 13.35700949 3.17678395 0 3 C0 2.01 0 1.02 0 0 Z " fill="#598361" transform="translate(472,80)"/>
<path d="M0 0 C0 3 0 3 -2.11132812 5.4519043 C-3.07697101 6.41707201 -4.05087603 7.37401783 -5.03125 8.32421875 C-5.54175903 8.83048294 -6.05226807 9.33674713 -6.57824707 9.85835266 C-8.21193407 11.47523405 -9.85573744 13.08138126 -11.5 14.6875 C-12.6087547 15.78121031 -13.71683647 16.87560326 -14.82421875 17.97070312 C-17.54173139 20.65512158 -20.26836361 23.3299581 -23 26 C-23.66 25.67 -24.32 25.34 -25 25 C-24.25556641 24.27296875 -24.25556641 24.27296875 -23.49609375 23.53125 C-20.02303478 20.10432274 -16.65522562 16.66110345 -13.5 12.9375 C-10.49248377 9.43218798 -7.22432696 6.42330176 -3.69921875 3.4453125 C-1.90381734 1.95747294 -1.90381734 1.95747294 0 0 Z " fill="#6FA37D" transform="translate(216,194)"/>
<path d="M0 0 C0.33 0 0.66 0 1 0 C1.91160286 7.35793733 2.11459026 14.58982977 2 22 C1.34 22.33 0.68 22.66 0 23 C-0.65772428 26.02934491 -0.65772428 26.02934491 -1 29 C-1.33 29 -1.66 29 -2 29 C-2.027193 27.41676312 -2.04648306 25.83338938 -2.0625 24.25 C-2.07410156 23.36828125 -2.08570312 22.4865625 -2.09765625 21.578125 C-2 19 -2 19 -1.53125 17.15625 C-0.72830306 13.89723007 -0.63002693 10.58923753 -0.4375 7.25 C-0.39431641 6.55261719 -0.35113281 5.85523438 -0.30664062 5.13671875 C-0.20110404 3.42468078 -0.1001009 1.71236439 0 0 Z " fill="#70A47E" transform="translate(82,539)"/>
<path d="M0 0 C-2.72832386 1.29347217 -5.45761369 2.58483296 -8.1875 3.875 C-9.34088867 4.42220703 -9.34088867 4.42220703 -10.51757812 4.98046875 C-12.67336866 5.99822394 -14.8347905 7.00246652 -17 8 C-17.94488281 8.43570313 -18.88976562 8.87140625 -19.86328125 9.3203125 C-22 10 -22 10 -25 9 C-4.51079137 -1.50359712 -4.51079137 -1.50359712 0 0 Z " fill="#70A67F" transform="translate(699,902)"/>
<path d="M0 0 C2 3 2 3 2 6 C3.32 6.33 4.64 6.66 6 7 C5.34 9.97 4.68 12.94 4 16 C0.78235549 11.17353323 -0.36261136 5.80178176 0 0 Z " fill="#86CA9B" transform="translate(509,579)"/>
<path d="M0 0 C2 1 2 1 2.8515625 3.328125 C3.10679687 4.29234375 3.36203125 5.2565625 3.625 6.25 C3.88539063 7.20390625 4.14578125 8.1578125 4.4140625 9.140625 C4.97044392 11.85576635 5.11083497 14.23920177 5 17 C3 14 3 14 3 12 C2.34 12 1.68 12 1 12 C0.67 8.04 0.34 4.08 0 0 Z " fill="#598360" transform="translate(928,386)"/>
<path d="M0 0 C0.33 0 0.66 0 1 0 C1.02721176 1.89575251 1.04649136 3.79161979 1.0625 5.6875 C1.07410156 6.74324219 1.08570312 7.79898437 1.09765625 8.88671875 C1.00865425 11.72410262 0.64939838 14.2438919 0 17 C-0.33 17 -0.66 17 -1 17 C-1.22262606 14.91814549 -1.42757926 12.83439574 -1.625 10.75 C-1.74101563 9.58984375 -1.85703125 8.4296875 -1.9765625 7.234375 C-1.99955595 4.06127909 -1.69705154 2.61682756 0 0 Z " fill="#5B8663" transform="translate(82,452)"/>
<path d="M0 0 C1.67641098 4.09086452 0.2409319 7.71511018 -0.9375 11.75 C-1.13279297 12.44738281 -1.32808594 13.14476562 -1.52929688 13.86328125 C-2.0108246 15.57798973 -2.50425157 17.28934877 -3 19 C-4.11442007 15.6411535 -3.85242414 13.36050459 -3.0625 9.9375 C-2.42818516 7.14399426 -2 4.87850476 -2 2 C-1.34 2 -0.68 2 0 2 C0 1.34 0 0.68 0 0 Z " fill="#88D09C" transform="translate(566,382)"/>
<path d="M0 0 C3.87051275 3.07881696 7.02911382 6.00073014 10 10 C9.67 10.66 9.34 11.32 9 12 C7.49405319 10.38050958 5.99539332 8.75424026 4.5 7.125 C3.6646875 6.22007812 2.829375 5.31515625 1.96875 4.3828125 C0 2 0 2 0 0 Z " fill="#537A58" transform="translate(186,795)"/>
<path d="M0 0 C0.66 0.66 1.32 1.32 2 2 C0.35 3.98 -1.3 5.96 -3 8 C-3.66 7.67 -4.32 7.34 -5 7 C-3.70700306 4.11562221 -2.34058637 2.12780579 0 0 Z " fill="#5D8864" transform="translate(156,260)"/>
<path d="M0 0 C1.65 0 3.3 0 5 0 C5.33 0.66 5.66 1.32 6 2 C3.03 1.505 3.03 1.505 0 1 C0 0.67 0 0.34 0 0 Z " fill="#6B9A77" transform="translate(659,104)"/>
<path d="M0 0 C0.66 0.99 1.32 1.98 2 3 C1.01 3 0.02 3 -1 3 C-0.67 2.01 -0.34 1.02 0 0 Z " fill="#699773" transform="translate(145,743)"/>
<path d="M0 0 C0.99 1.485 0.99 1.485 2 3 C1.67 3.66 1.34 4.32 1 5 C0.67 3.35 0.34 1.7 0 0 Z " fill="#6D9D77" transform="translate(91,619)"/>
<path d="M0 0 C0.99 0 1.98 0 3 0 C3 0.66 3 1.32 3 2 C2.01 1.67 1.02 1.34 0 1 C0 0.67 0 0.34 0 0 Z " fill="#699773" transform="translate(176,789)"/>
<path d="M0 0 C1.65 0 3.3 0 5 0 C5 0.33 5 0.66 5 1 C3.35 1 1.7 1 0 1 C0 0.67 0 0.34 0 0 Z " fill="#6D9F7A" transform="translate(547,80)"/>
<path d="M0 0 C4 1 4 1 4 1 Z " fill="#6E9C76" transform="translate(614,934)"/>
<path d="M0 0 C0.66 0 1.32 0 2 0 C2 0.66 2 1.32 2 2 C1.34 2 0.68 2 0 2 C0 1.34 0 0.68 0 0 Z " fill="#6F9C77" transform="translate(408,934)"/>
<path d="M0 0 C0.99 0.495 0.99 0.495 2 1 C1.34 1.66 0.68 2.32 0 3 C0 2.01 0 1.02 0 0 Z " fill="#6C9873" transform="translate(370,923)"/>
<path d="M0 0 C1 4 1 4 1 4 Z " fill="#6FA07B" transform="translate(80,451)"/>
<path d="M0 0 C0.99 0.495 0.99 0.495 2 1 C1.67 1.66 1.34 2.32 1 3 C0.67 2.01 0.34 1.02 0 0 Z " fill="#689775" transform="translate(854,240)"/>
<path d="M0 0 C0.33 0.99 0.66 1.98 1 3 C0.34 2.67 -0.32 2.34 -1 2 C-0.67 1.34 -0.34 0.68 0 0 Z " fill="#679571" transform="translate(813,193)"/>
<path d="M0 0 C3 1 3 1 3 1 Z " fill="#6B9976" transform="translate(640,927)"/>
<path d="M0 0 C3 1 3 1 3 1 Z " fill="#6C9B76" transform="translate(643,926)"/>
<path d="M0 0 C3 1 3 1 3 1 Z " fill="#6E9C77" transform="translate(376,925)"/>
<path d="M0 0 C3 1 3 1 3 1 Z " fill="#6A9876" transform="translate(356,918)"/>
<path d="M0 0 C0.33 0.66 0.66 1.32 1 2 C0.34 1.67 -0.32 1.34 -1 1 C-0.67 0.67 -0.34 0.34 0 0 Z " fill="#6B9874" transform="translate(241,852)"/>
<path d="M0 0 C0.66 0.66 1.32 1.32 2 2 C1.34 2 0.68 2 0 2 C0 1.34 0 0.68 0 0 Z " fill="#689572" transform="translate(232,846)"/>
<path d="M0 0 C0.66 0.66 1.32 1.32 2 2 C1.34 2 0.68 2 0 2 C0 1.34 0 0.68 0 0 Z " fill="#6B9974" transform="translate(152,754)"/>
<path d="" fill="#6C9C76" transform="translate(0,0)"/>
<path d="" fill="#6F9D78" transform="translate(0,0)"/>
<path d="" fill="#6F9E78" transform="translate(0,0)"/>
<path d="" fill="#709F79" transform="translate(0,0)"/>
<path d="" fill="#6F9F7B" transform="translate(0,0)"/>
<path d="" fill="#709E79" transform="translate(0,0)"/>
<path d="M0 0 C3 1 3 1 3 1 Z " fill="#6D9B77" transform="translate(288,136)"/>
<path d="M0 0 C3 1 3 1 3 1 Z " fill="#6A9A77" transform="translate(635,96)"/>
<path d="M0 0 C3 1 3 1 3 1 Z " fill="#6B9B77" transform="translate(605,88)"/>
<path d="M0 0 C2 1 2 1 2 1 Z " fill="#6E9C77" transform="translate(456,943)"/>
<path d="M0 0 C2 1 2 1 2 1 Z " fill="#6F9E77" transform="translate(576,942)"/>
<path d="M0 0 C2 1 2 1 2 1 Z " fill="#6F9D78" transform="translate(451,942)"/>
<path d="M0 0 C2 1 2 1 2 1 Z " fill="#6D9C78" transform="translate(442,941)"/>
<path d="M0 0 C2 1 2 1 2 1 Z " fill="#6E9C77" transform="translate(612,935)"/>
<path d="M0 0 C2 1 2 1 2 1 Z " fill="#6E9D77" transform="translate(379,926)"/>
<path d="M0 0 C2 1 2 1 2 1 Z " fill="#6B9A75" transform="translate(354,917)"/>
<path d="" fill="#6A9874" transform="translate(0,0)"/>
<path d="M0 0 C2 1 2 1 2 1 Z " fill="#6C9B78" transform="translate(321,903)"/>
<path d="M0 0 C2 1 2 1 2 1 Z " fill="#6A9974" transform="translate(313,899)"/>
<path d="M0 0 C2 1 2 1 2 1 Z " fill="#699775" transform="translate(304,895)"/>
<path d="" fill="#689673" transform="translate(0,0)"/>
<path d="M0 0 C2 1 2 1 2 1 Z " fill="#6A9873" transform="translate(146,747)"/>
<path d="" fill="#6D9B77" transform="translate(0,0)"/>
<path d="" fill="#6B9975" transform="translate(0,0)"/>
<path d="" fill="#6E9C77" transform="translate(0,0)"/>
<path d="" fill="#6E9B74" transform="translate(0,0)"/>
<path d="" fill="#6E9C76" transform="translate(0,0)"/>
<path d="" fill="#6E9C75" transform="translate(0,0)"/>
<path d="" fill="#6E9D74" transform="translate(0,0)"/>
<path d="" fill="#709F7A" transform="translate(0,0)"/>
<path d="M0 0 C2 1 2 1 2 1 Z " fill="#6D9C77" transform="translate(80,585)"/>
<path d="" fill="#709F7A" transform="translate(0,0)"/>
<path d="" fill="#6FA07A" transform="translate(0,0)"/>
<path d="" fill="#6F9F78" transform="translate(0,0)"/>
<path d="" fill="#70A07B" transform="translate(0,0)"/>
<path d="" fill="#70A07A" transform="translate(0,0)"/>
<path d="" fill="#6F9E79" transform="translate(0,0)"/>
<path d="" fill="#70A17A" transform="translate(0,0)"/>
<path d="" fill="#6F9F78" transform="translate(0,0)"/>
<path d="" fill="#6E9B77" transform="translate(0,0)"/>
<path d="" fill="#699877" transform="translate(0,0)"/>
<path d="" fill="#6E9C78" transform="translate(0,0)"/>
<path d="" fill="#6C9A75" transform="translate(0,0)"/>
<path d="" fill="#6B9974" transform="translate(0,0)"/>
<path d="" fill="#699776" transform="translate(0,0)"/>
<path d="" fill="#6B9673" transform="translate(0,0)"/>
<path d="M0 0 C2 1 2 1 2 1 Z " fill="#6A9875" transform="translate(789,176)"/>
<path d="M0 0 C2 1 2 1 2 1 Z " fill="#6B9A76" transform="translate(241,168)"/>
<path d="" fill="#699874" transform="translate(0,0)"/>
<path d="M0 0 C2 1 2 1 2 1 Z " fill="#6B9B76" transform="translate(304,128)"/>
<path d="M0 0 C2 1 2 1 2 1 Z " fill="#6A9C77" transform="translate(698,120)"/>
<path d="M0 0 C2 1 2 1 2 1 Z " fill="#6C9B78" transform="translate(320,120)"/>
<path d="M0 0 C2 1 2 1 2 1 Z " fill="#699A75" transform="translate(680,112)"/>
<path d="M0 0 C2 1 2 1 2 1 Z " fill="#6C9C79" transform="translate(337,112)"/>
<path d="M0 0 C2 1 2 1 2 1 Z " fill="#6D9B76" transform="translate(370,100)"/>
<path d="M0 0 C2 1 2 1 2 1 Z " fill="#6D9B76" transform="translate(379,97)"/>
<path d="M0 0 C2 1 2 1 2 1 Z " fill="#6E9E7A" transform="translate(555,80)"/>
<path d="" fill="#0D180E" transform="translate(0,0)"/>
<path d="" fill="#71A079" transform="translate(0,0)"/>
<path d="" fill="#709D77" transform="translate(0,0)"/>
<path d="" fill="#6D9D78" transform="translate(0,0)"/>
<path d="" fill="#6E9C75" transform="translate(0,0)"/>
<path d="" fill="#6B9874" transform="translate(0,0)"/>
<path d="" fill="#6D9B77" transform="translate(0,0)"/>
<path d="" fill="#6E9B77" transform="translate(0,0)"/>
<path d="" fill="#709D78" transform="translate(0,0)"/>
<path d="" fill="#6C9C74" transform="translate(0,0)"/>
<path d="" fill="#709F7A" transform="translate(0,0)"/>
<path d="" fill="#4E7053" transform="translate(0,0)"/>
<path d="" fill="#6E9C77" transform="translate(0,0)"/>
<path d="" fill="#6D9D77" transform="translate(0,0)"/>
<path d="" fill="#6C9B75" transform="translate(0,0)"/>
<path d="" fill="#6C9875" transform="translate(0,0)"/>
<path d="" fill="#6D9C75" transform="translate(0,0)"/>
<path d="" fill="#6E9A76" transform="translate(0,0)"/>
<path d="" fill="#6C9B75" transform="translate(0,0)"/>
<path d="" fill="#6E9C74" transform="translate(0,0)"/>
<path d="" fill="#6C9772" transform="translate(0,0)"/>
<path d="" fill="#6D9975" transform="translate(0,0)"/>
<path d="" fill="#6E9E78" transform="translate(0,0)"/>
<path d="" fill="#6E9B77" transform="translate(0,0)"/>
<path d="" fill="#699873" transform="translate(0,0)"/>
<path d="" fill="#6F9A78" transform="translate(0,0)"/>
<path d="" fill="#6E9D76" transform="translate(0,0)"/>
<path d="" fill="#6C9C77" transform="translate(0,0)"/>
<path d="" fill="#6B9672" transform="translate(0,0)"/>
<path d="" fill="#6B9874" transform="translate(0,0)"/>
<path d="" fill="#6B9972" transform="translate(0,0)"/>
<path d="" fill="#6E9D77" transform="translate(0,0)"/>
<path d="" fill="#6A9670" transform="translate(0,0)"/>
<path d="" fill="#709E78" transform="translate(0,0)"/>
<path d="" fill="#6F9C75" transform="translate(0,0)"/>
<path d="" fill="#6B9773" transform="translate(0,0)"/>
<path d="" fill="#6D9D76" transform="translate(0,0)"/>
<path d="" fill="#689773" transform="translate(0,0)"/>
<path d="" fill="#699672" transform="translate(0,0)"/>
<path d="" fill="#6C9975" transform="translate(0,0)"/>
<path d="" fill="#689A73" transform="translate(0,0)"/>
<path d="" fill="#6A9A73" transform="translate(0,0)"/>
<path d="" fill="#6E9B75" transform="translate(0,0)"/>
<path d="" fill="#6B9772" transform="translate(0,0)"/>
<path d="" fill="#699673" transform="translate(0,0)"/>
<path d="" fill="#6C9B75" transform="translate(0,0)"/>
<path d="" fill="#6A9772" transform="translate(0,0)"/>
<path d="" fill="#699972" transform="translate(0,0)"/>
<path d="" fill="#6B9674" transform="translate(0,0)"/>
<path d="" fill="#6B9871" transform="translate(0,0)"/>
<path d="" fill="#6A9774" transform="translate(0,0)"/>
<path d="" fill="#6C9875" transform="translate(0,0)"/>
<path d="" fill="#6B9774" transform="translate(0,0)"/>
<path d="" fill="#6D9A76" transform="translate(0,0)"/>
<path d="" fill="#6D9B77" transform="translate(0,0)"/>
<path d="" fill="#6E9B77" transform="translate(0,0)"/>
<path d="" fill="#6A9972" transform="translate(0,0)"/>
<path d="" fill="#689673" transform="translate(0,0)"/>
<path d="" fill="#689671" transform="translate(0,0)"/>
<path d="" fill="#6C9771" transform="translate(0,0)"/>
<path d="" fill="#689772" transform="translate(0,0)"/>
<path d="" fill="#6B9873" transform="translate(0,0)"/>
<path d="" fill="#689571" transform="translate(0,0)"/>
<path d="" fill="#699673" transform="translate(0,0)"/>
<path d="" fill="#699571" transform="translate(0,0)"/>
<path d="" fill="#6A9571" transform="translate(0,0)"/>
<path d="" fill="#6D9A76" transform="translate(0,0)"/>
<path d="" fill="#679774" transform="translate(0,0)"/>
<path d="" fill="#6B9572" transform="translate(0,0)"/>
<path d="" fill="#6A9873" transform="translate(0,0)"/>
<path d="" fill="#689672" transform="translate(0,0)"/>
<path d="" fill="#6C9872" transform="translate(0,0)"/>
<path d="" fill="#689772" transform="translate(0,0)"/>
<path d="" fill="#6C9B76" transform="translate(0,0)"/>
<path d="" fill="#6B9972" transform="translate(0,0)"/>
<path d="" fill="#699972" transform="translate(0,0)"/>
<path d="" fill="#699874" transform="translate(0,0)"/>
<path d="" fill="#6D9B76" transform="translate(0,0)"/>
<path d="" fill="#6A9974" transform="translate(0,0)"/>
<path d="" fill="#6B9A73" transform="translate(0,0)"/>
<path d="" fill="#6D9A77" transform="translate(0,0)"/>
<path d="" fill="#6E9A76" transform="translate(0,0)"/>
<path d="" fill="#6B9973" transform="translate(0,0)"/>
<path d="" fill="#6C9874" transform="translate(0,0)"/>
<path d="" fill="#699975" transform="translate(0,0)"/>
<path d="" fill="#6E9D78" transform="translate(0,0)"/>
<path d="" fill="#6D9B76" transform="translate(0,0)"/>
<path d="" fill="#6D9D75" transform="translate(0,0)"/>
<path d="" fill="#6B9C74" transform="translate(0,0)"/>
<path d="" fill="#6C9C76" transform="translate(0,0)"/>
<path d="" fill="#6D9A77" transform="translate(0,0)"/>
<path d="" fill="#6F9C76" transform="translate(0,0)"/>
<path d="" fill="#6D9A72" transform="translate(0,0)"/>
<path d="" fill="#6C9E79" transform="translate(0,0)"/>
<path d="" fill="#6F9C78" transform="translate(0,0)"/>
<path d="" fill="#6F9F78" transform="translate(0,0)"/>
<path d="" fill="#6E9D77" transform="translate(0,0)"/>
<path d="" fill="#6E9C78" transform="translate(0,0)"/>
<path d="" fill="#6D9E76" transform="translate(0,0)"/>
<path d="" fill="#6D9F79" transform="translate(0,0)"/>
<path d="" fill="#709D79" transform="translate(0,0)"/>
<path d="" fill="#6F9D77" transform="translate(0,0)"/>
<path d="" fill="#6F9D76" transform="translate(0,0)"/>
<path d="" fill="#6E9C76" transform="translate(0,0)"/>
<path d="" fill="#6F9F79" transform="translate(0,0)"/>
<path d="" fill="#71A277" transform="translate(0,0)"/>
<path d="" fill="#719E7C" transform="translate(0,0)"/>
<path d="" fill="#6FA079" transform="translate(0,0)"/>
<path d="" fill="#709E78" transform="translate(0,0)"/>
<path d="" fill="#6F9E7A" transform="translate(0,0)"/>
<path d="" fill="#6F9E79" transform="translate(0,0)"/>
<path d="" fill="#6F9E7A" transform="translate(0,0)"/>
<path d="" fill="#6E9B76" transform="translate(0,0)"/>
<path d="" fill="#6D9B76" transform="translate(0,0)"/>
<path d="" fill="#70A27B" transform="translate(0,0)"/>
<path d="" fill="#6B9D79" transform="translate(0,0)"/>
<path d="" fill="#6E9C77" transform="translate(0,0)"/>
<path d="" fill="#6F9C76" transform="translate(0,0)"/>
<path d="" fill="#6D9B76" transform="translate(0,0)"/>
<path d="" fill="#6F9A74" transform="translate(0,0)"/>
<path d="" fill="#6B9B75" transform="translate(0,0)"/>
<path d="" fill="#6E9F7A" transform="translate(0,0)"/>
<path d="" fill="#6C9B77" transform="translate(0,0)"/>
<path d="" fill="#6E9B79" transform="translate(0,0)"/>
<path d="" fill="#6C9875" transform="translate(0,0)"/>
<path d="" fill="#6D9A74" transform="translate(0,0)"/>
<path d="" fill="#6C9A75" transform="translate(0,0)"/>
<path d="" fill="#6C9877" transform="translate(0,0)"/>
<path d="" fill="#6C9973" transform="translate(0,0)"/>
<path d="" fill="#6B9B76" transform="translate(0,0)"/>
<path d="" fill="#6A9974" transform="translate(0,0)"/>
<path d="" fill="#6D9A75" transform="translate(0,0)"/>
<path d="" fill="#6A9572" transform="translate(0,0)"/>
<path d="" fill="#6D9E7A" transform="translate(0,0)"/>
<path d="" fill="#6D9D7A" transform="translate(0,0)"/>
<path d="" fill="#6C9A75" transform="translate(0,0)"/>
<path d="" fill="#6B9B75" transform="translate(0,0)"/>
<path d="" fill="#64946F" transform="translate(0,0)"/>
<path d="" fill="#689572" transform="translate(0,0)"/>
<path d="" fill="#689874" transform="translate(0,0)"/>
<path d="" fill="#6B9976" transform="translate(0,0)"/>
<path d="" fill="#6D9D78" transform="translate(0,0)"/>
<path d="" fill="#6B9773" transform="translate(0,0)"/>
<path d="" fill="#6C9874" transform="translate(0,0)"/>
<path d="" fill="#6D9A75" transform="translate(0,0)"/>
<path d="" fill="#6B9A75" transform="translate(0,0)"/>
<path d="" fill="#6C9974" transform="translate(0,0)"/>
<path d="" fill="#6B9C76" transform="translate(0,0)"/>
<path d="" fill="#6C9A75" transform="translate(0,0)"/>
<path d="" fill="#689571" transform="translate(0,0)"/>
<path d="" fill="#699875" transform="translate(0,0)"/>
<path d="" fill="#6B9674" transform="translate(0,0)"/>
<path d="" fill="#699B75" transform="translate(0,0)"/>
<path d="" fill="#6A9974" transform="translate(0,0)"/>
<path d="" fill="#699671" transform="translate(0,0)"/>
<path d="" fill="#6A9774" transform="translate(0,0)"/>
<path d="" fill="#699A76" transform="translate(0,0)"/>
<path d="" fill="#6C9975" transform="translate(0,0)"/>
<path d="" fill="#6C9B76" transform="translate(0,0)"/>
<path d="" fill="#6B9A76" transform="translate(0,0)"/>
<path d="" fill="#6C9875" transform="translate(0,0)"/>
<path d="" fill="#6A9874" transform="translate(0,0)"/>
<path d="" fill="#6A9B78" transform="translate(0,0)"/>
<path d="" fill="#699874" transform="translate(0,0)"/>
<path d="" fill="#6B9873" transform="translate(0,0)"/>
<path d="" fill="#6B9874" transform="translate(0,0)"/>
<path d="" fill="#6A9873" transform="translate(0,0)"/>
<path d="" fill="#6D9D78" transform="translate(0,0)"/>
<path d="" fill="#6A9873" transform="translate(0,0)"/>
<path d="" fill="#6A9772" transform="translate(0,0)"/>
<path d="" fill="#6C9B74" transform="translate(0,0)"/>
<path d="" fill="#6A9872" transform="translate(0,0)"/>
<path d="" fill="#6A9875" transform="translate(0,0)"/>
<path d="" fill="#6A9A73" transform="translate(0,0)"/>
<path d="" fill="#6A9774" transform="translate(0,0)"/>
<path d="" fill="#6B9A75" transform="translate(0,0)"/>
<path d="" fill="#6E9A76" transform="translate(0,0)"/>
<path d="" fill="#6A9972" transform="translate(0,0)"/>
<path d="" fill="#6B9A74" transform="translate(0,0)"/>
<path d="" fill="#699A75" transform="translate(0,0)"/>
<path d="" fill="#679975" transform="translate(0,0)"/>
<path d="" fill="#699872" transform="translate(0,0)"/>
<path d="" fill="#6D9C74" transform="translate(0,0)"/>
<path d="" fill="#6B9A75" transform="translate(0,0)"/>
<path d="" fill="#699975" transform="translate(0,0)"/>
<path d="" fill="#6B9974" transform="translate(0,0)"/>
<path d="" fill="#699C77" transform="translate(0,0)"/>
<path d="" fill="#6A9A75" transform="translate(0,0)"/>
<path d="" fill="#6B9B75" transform="translate(0,0)"/>
<path d="" fill="#679775" transform="translate(0,0)"/>
<path d="" fill="#6A9977" transform="translate(0,0)"/>
<path d="" fill="#6B9D76" transform="translate(0,0)"/>
<path d="" fill="#699976" transform="translate(0,0)"/>
<path d="" fill="#6A9874" transform="translate(0,0)"/>
<path d="" fill="#6C9A75" transform="translate(0,0)"/>
<path d="" fill="#699A75" transform="translate(0,0)"/>
<path d="" fill="#6A9B76" transform="translate(0,0)"/>
<path d="" fill="#6B9B77" transform="translate(0,0)"/>
<path d="" fill="#6D9A75" transform="translate(0,0)"/>
<path d="" fill="#000300" transform="translate(0,0)"/>
<path d="" fill="#6C9B75" transform="translate(0,0)"/>
<path d="" fill="#6D9B75" transform="translate(0,0)"/>
<path d="" fill="#6F9C77" transform="translate(0,0)"/>
<path d="" fill="#6D9B76" transform="translate(0,0)"/>
<path d="" fill="#6B9A74" transform="translate(0,0)"/>
<path d="" fill="#6F9D77" transform="translate(0,0)"/>
<path d="" fill="#709E77" transform="translate(0,0)"/>
<path d="" fill="#6F9F79" transform="translate(0,0)"/>
<path d="" fill="#6F9E78" transform="translate(0,0)"/>
<path d="" fill="#71A079" transform="translate(0,0)"/>
<path d="" fill="#6D9C78" transform="translate(0,0)"/>
<path d="" fill="#6B9C77" transform="translate(0,0)"/>
<path d="" fill="#6E9B78" transform="translate(0,0)"/>
<path d="" fill="#6FA078" transform="translate(0,0)"/>
<path d="" fill="#6E9C7A" transform="translate(0,0)"/>
<path d="" fill="#6D9D77" transform="translate(0,0)"/>
<path d="" fill="#6F9F7B" transform="translate(0,0)"/>
<path d="" fill="#6FA179" transform="translate(0,0)"/>
<path d="" fill="#71A07A" transform="translate(0,0)"/>
<path d="" fill="#6D9C77" transform="translate(0,0)"/>
<path d="" fill="#70A37C" transform="translate(0,0)"/>
<path d="" fill="#6EA07B" transform="translate(0,0)"/>
<path d="" fill="#71A07B" transform="translate(0,0)"/>
<path d="" fill="#6E9D78" transform="translate(0,0)"/>
<path d="" fill="#71A17B" transform="translate(0,0)"/>
<path d="" fill="#6E9D78" transform="translate(0,0)"/>
<path d="" fill="#709E77" transform="translate(0,0)"/>
<path d="" fill="#709E79" transform="translate(0,0)"/>
<path d="" fill="#70A079" transform="translate(0,0)"/>
<path d="" fill="#6E9E7A" transform="translate(0,0)"/>
<path d="" fill="#70A07A" transform="translate(0,0)"/>
<path d="" fill="#719F7B" transform="translate(0,0)"/>
</svg>
